<?xml version='1.0' encoding='UTF-8'?>
<!DOCTYPE svg PUBLIC "-//W3C//DTD SVG 1.1//EN" "http://www.w3.org/Graphics/SVG/1.1/DTD/svg11.dtd">
<!-- Created with matplotlib (http://matplotlib.org/) -->
<svg xmlns="http://www.w3.org/2000/svg" xmlns:xlink="http://www.w3.org/1999/xlink" height="400px" version="1.1" viewBox="0 0 600 400" width="600px">
  <title>mplwp_trigonometric_functions_piaxis.svg</title>
  <desc>http://commons.wikimedia.org/wiki/File:mplwp_trigonometric_functions_piaxis.svg
Plot created with mplwp, the Matplotlib extension for Wikipedia plots.</desc>
  <defs>
    <style type="text/css">
*{stroke-linecap:butt;stroke-linejoin:round;}
  </style>
  </defs>
  <defs>
    <clipPath id="pa82c4e93f3">
      <rect height="355.0" width="515.0" x="42.5" y="18.5"/>
    </clipPath>
  </defs>
  <g id="figure_1">
    <g id="patch_1">
      <path d="
M 0 400
L 600 400
L 600 0
L 0 0
z 
" style="fill:#ffffff;"/>
    </g>
    <g id="axes_1">
      <g id="patch_2">
        <path d="
M 42.5 373.5
L 557.5 373.5
L 557.5 18.5
L 42.5 18.5
z 
" style="fill:#ffffff;"/>
      </g>
      <g id="line2d_1">
        <path clip-path="url(#pa82c4e93f3)" d="
M 42.5 196
L 53.933 183.781
L 60.01 177.612
L 65.16 172.695
L 69.692 168.67
L 73.812 165.3
L 77.726 162.384
L 81.331 159.969
L 84.833 157.89
L 88.129 156.187
L 91.322 154.782
L 94.412 153.661
L 97.399 152.806
L 100.386 152.18
L 103.27 151.797
L 106.154 151.632
L 109.038 151.687
L 111.922 151.961
L 114.806 152.453
L 117.793 153.19
L 120.78 154.155
L 123.87 155.386
L 127.063 156.901
L 130.359 158.713
L 133.758 160.835
L 137.363 163.348
L 141.174 166.28
L 145.294 169.737
L 149.723 173.748
L 154.667 178.53
L 160.538 184.533
L 168.469 192.991
L 183.507 209.075
L 189.481 215.096
L 194.528 219.871
L 198.957 223.767
L 203.077 227.101
L 206.888 229.905
L 210.493 232.289
L 213.892 234.28
L 217.188 235.96
L 220.381 237.34
L 223.471 238.438
L 226.458 239.27
L 229.445 239.871
L 232.329 240.232
L 235.213 240.373
L 238.097 240.294
L 240.981 239.997
L 243.865 239.481
L 246.852 238.72
L 249.839 237.733
L 252.929 236.478
L 256.122 234.94
L 259.418 233.104
L 262.92 230.892
L 266.525 228.348
L 270.336 225.388
L 274.456 221.902
L 278.988 217.768
L 284.035 212.853
L 290.009 206.711
L 298.352 197.784
L 311.742 183.459
L 317.819 177.308
L 322.866 172.506
L 327.398 168.495
L 331.518 165.139
L 335.329 162.311
L 338.934 159.904
L 342.436 157.833
L 345.732 156.138
L 348.925 154.741
L 352.015 153.628
L 355.002 152.781
L 357.989 152.163
L 360.873 151.787
L 363.757 151.63
L 366.641 151.693
L 369.525 151.975
L 372.409 152.475
L 375.396 153.22
L 378.383 154.192
L 381.473 155.431
L 384.666 156.954
L 387.962 158.774
L 391.361 160.903
L 394.966 163.424
L 398.777 166.363
L 402.897 169.827
L 407.326 173.845
L 412.27 178.633
L 418.141 184.641
L 426.072 193.102
L 440.904 208.968
L 446.878 214.995
L 451.925 219.777
L 456.457 223.767
L 460.577 227.101
L 464.388 229.905
L 467.993 232.289
L 471.392 234.28
L 474.688 235.96
L 477.881 237.34
L 480.971 238.438
L 483.958 239.27
L 486.945 239.871
L 489.829 240.232
L 492.713 240.373
L 495.597 240.294
L 498.481 239.997
L 501.365 239.481
L 504.352 238.72
L 507.339 237.733
L 510.429 236.478
L 513.622 234.94
L 516.918 233.104
L 520.42 230.892
L 524.025 228.348
L 527.836 225.388
L 531.956 221.902
L 536.488 217.768
L 541.535 212.853
L 547.509 206.711
L 555.852 197.784
L 557.5 196" style="fill:none;stroke:#0000cc;stroke-linecap:square;stroke-width:2.4;"/>
      </g>
      <g id="line2d_2">
        <path clip-path="url(#pa82c4e93f3)" d="
M 42.5 151.625
L 45.384 151.735
L 48.268 152.064
L 51.255 152.634
L 54.242 153.434
L 57.332 154.5
L 60.422 155.801
L 63.615 157.386
L 66.911 159.267
L 70.413 161.526
L 74.121 164.191
L 78.035 167.287
L 82.258 170.919
L 86.893 175.211
L 92.146 180.393
L 98.429 186.919
L 108.42 197.673
L 118.514 208.434
L 124.591 214.591
L 129.638 219.399
L 134.17 223.418
L 138.29 226.781
L 142.101 229.616
L 145.706 232.031
L 149.208 234.11
L 152.504 235.813
L 155.697 237.218
L 158.787 238.339
L 161.774 239.194
L 164.761 239.82
L 167.645 240.203
L 170.529 240.368
L 173.413 240.313
L 176.297 240.039
L 179.181 239.547
L 182.168 238.81
L 185.155 237.845
L 188.245 236.614
L 191.438 235.099
L 194.734 233.287
L 198.133 231.165
L 201.738 228.652
L 205.549 225.72
L 209.669 222.263
L 214.098 218.252
L 219.042 213.47
L 224.913 207.467
L 232.844 199.009
L 247.882 182.925
L 253.856 176.904
L 258.903 172.129
L 263.332 168.233
L 267.452 164.899
L 271.263 162.095
L 274.868 159.711
L 278.267 157.72
L 281.563 156.04
L 284.756 154.66
L 287.846 153.562
L 290.833 152.73
L 293.82 152.129
L 296.704 151.768
L 299.588 151.627
L 302.472 151.706
L 305.356 152.003
L 308.24 152.519
L 311.227 153.28
L 314.214 154.267
L 317.304 155.522
L 320.497 157.06
L 323.793 158.896
L 327.295 161.108
L 330.9 163.652
L 334.711 166.612
L 338.831 170.098
L 343.363 174.232
L 348.41 179.147
L 354.384 185.289
L 362.727 194.216
L 376.117 208.541
L 382.194 214.692
L 387.241 219.494
L 391.773 223.505
L 395.893 226.861
L 399.704 229.689
L 403.309 232.096
L 406.811 234.167
L 410.107 235.862
L 413.3 237.259
L 416.39 238.372
L 419.377 239.219
L 422.364 239.837
L 425.248 240.213
L 428.132 240.37
L 431.016 240.307
L 433.9 240.025
L 436.784 239.525
L 439.771 238.78
L 442.758 237.808
L 445.848 236.569
L 449.041 235.046
L 452.337 233.226
L 455.736 231.097
L 459.341 228.576
L 463.152 225.637
L 467.272 222.173
L 471.701 218.155
L 476.645 213.367
L 482.516 207.359
L 490.447 198.898
L 505.279 183.032
L 511.253 177.005
L 516.3 172.223
L 520.832 168.233
L 524.952 164.899
L 528.763 162.095
L 532.368 159.711
L 535.767 157.72
L 539.063 156.04
L 542.256 154.66
L 545.346 153.562
L 548.333 152.73
L 551.32 152.129
L 554.204 151.768
L 557.088 151.627
L 557.5 151.625" style="fill:none;stroke:#dd00aa;stroke-linecap:square;stroke-width:2.4;"/>
      </g>
      <g id="line2d_3">
        <path clip-path="url(#pa82c4e93f3)" d="
M 42.5 196
L 51.564 186.022
L 56.302 180.464
L 60.113 175.661
L 63.512 171.02
L 66.499 166.571
L 69.28 162.024
L 71.752 157.567
L 74.121 152.835
L 76.284 148.026
L 78.344 142.906
L 80.301 137.436
L 82.155 131.579
L 83.906 125.293
L 85.554 118.542
L 87.099 111.291
L 88.644 102.916
L 90.086 93.8079
L 91.425 83.9215
L 92.764 72.256
L 94 59.4278
L 95.133 45.382
L 96.266 28.4264
L 97.296 9.61781
L 97.795 -1
M 115.612 401
L 116.557 380.325
L 117.69 360.233
L 118.823 343.872
L 120.059 329.148
L 121.398 315.935
L 122.737 304.868
L 124.179 294.776
L 125.724 285.581
L 127.269 277.688
L 128.917 270.393
L 130.668 263.647
L 132.522 257.401
L 134.479 251.604
L 136.539 246.206
L 138.702 241.163
L 140.968 236.429
L 143.44 231.781
L 146.118 227.229
L 149.002 222.773
L 152.195 218.26
L 155.697 213.698
L 159.817 208.711
L 164.864 202.971
L 173.31 193.768
L 180.726 185.553
L 185.361 180.087
L 189.172 175.255
L 192.468 170.726
L 195.455 166.249
L 198.133 161.846
L 200.605 157.371
L 202.974 152.618
L 205.137 147.783
L 207.197 142.633
L 209.154 137.129
L 211.008 131.231
L 212.759 124.897
L 214.407 118.089
L 215.952 110.771
L 217.394 102.916
L 218.836 93.8079
L 220.175 83.9215
L 221.514 72.256
L 222.75 59.4278
L 223.883 45.382
L 225.016 28.4264
L 226.046 9.61781
L 226.545 -1
M 244.362 401
L 245.307 380.325
L 246.44 360.233
L 247.573 343.872
L 248.809 329.148
L 250.148 315.935
L 251.487 304.868
L 252.929 294.776
L 254.474 285.581
L 256.019 277.688
L 257.667 270.393
L 259.418 263.647
L 261.272 257.401
L 263.229 251.604
L 265.289 246.206
L 267.452 241.163
L 269.718 236.429
L 272.19 231.781
L 274.868 227.229
L 277.752 222.773
L 280.945 218.26
L 284.447 213.698
L 288.567 208.711
L 293.614 202.971
L 302.06 193.768
L 309.476 185.553
L 314.111 180.087
L 317.922 175.255
L 321.218 170.726
L 324.205 166.249
L 326.883 161.846
L 329.355 157.371
L 331.724 152.618
L 333.887 147.783
L 335.947 142.633
L 337.904 137.129
L 339.758 131.231
L 341.509 124.897
L 343.157 118.089
L 344.702 110.771
L 346.144 102.916
L 347.586 93.8079
L 348.925 83.9215
L 350.264 72.256
L 351.5 59.4278
L 352.633 45.382
L 353.766 28.4264
L 354.796 9.61781
L 355.295 -1
M 373.112 401
L 374.057 380.325
L 375.19 360.233
L 376.323 343.872
L 377.559 329.148
L 378.898 315.935
L 380.237 304.868
L 381.679 294.776
L 383.224 285.581
L 384.769 277.688
L 386.417 270.393
L 388.168 263.647
L 390.022 257.401
L 391.979 251.604
L 394.039 246.206
L 396.202 241.163
L 398.468 236.429
L 400.94 231.781
L 403.618 227.229
L 406.502 222.773
L 409.695 218.26
L 413.197 213.698
L 417.317 208.711
L 422.364 202.971
L 430.81 193.768
L 438.226 185.553
L 442.861 180.087
L 446.672 175.255
L 449.968 170.726
L 452.955 166.249
L 455.633 161.846
L 458.105 157.371
L 460.474 152.618
L 462.637 147.783
L 464.697 142.633
L 466.654 137.129
L 468.508 131.231
L 470.259 124.897
L 471.907 118.089
L 473.452 110.771
L 474.894 102.916
L 476.336 93.8079
L 477.675 83.9215
L 479.014 72.256
L 480.25 59.4278
L 481.383 45.382
L 482.516 28.4264
L 483.546 9.61781
L 484.045 -1
M 501.862 401
L 502.807 380.325
L 503.94 360.233
L 505.073 343.872
L 506.309 329.148
L 507.648 315.935
L 508.987 304.868
L 510.429 294.776
L 511.974 285.581
L 513.519 277.688
L 515.167 270.393
L 516.918 263.647
L 518.772 257.401
L 520.729 251.604
L 522.789 246.206
L 524.952 241.163
L 527.218 236.429
L 529.69 231.781
L 532.368 227.229
L 535.252 222.773
L 538.445 218.26
L 541.947 213.698
L 546.067 208.711
L 551.114 202.971
L 557.5 196" style="fill:none;stroke:#999900;stroke-linecap:square;stroke-width:2.4;"/>
      </g>
      <g id="line2d_4">
        <path clip-path="url(#pa82c4e93f3)" d="
M 51.58 -1
L 52.594 19.4922
L 53.727 38.0886
L 54.963 54.6068
L 56.199 68.2278
L 57.538 80.5437
L 58.98 91.6616
L 60.422 101.08
L 61.967 109.715
L 63.615 117.631
L 65.263 124.497
L 67.014 130.88
L 68.868 136.821
L 70.825 142.36
L 72.885 147.539
L 75.048 152.399
L 77.417 157.175
L 79.889 161.668
L 82.567 166.087
L 85.554 170.578
L 88.85 175.119
L 92.558 179.835
L 96.884 184.962
L 102.446 191.186
L 118.411 208.832
L 122.634 213.957
L 126.239 218.68
L 129.432 223.231
L 132.316 227.732
L 134.891 232.15
L 137.363 236.839
L 139.629 241.619
L 141.792 246.718
L 143.749 251.891
L 145.603 257.401
L 147.354 263.278
L 149.002 269.55
L 150.65 276.718
L 152.195 284.461
L 153.637 292.816
L 155.079 302.562
L 156.418 313.212
L 157.654 324.816
L 158.89 338.647
L 160.023 353.911
L 161.053 370.65
L 162.083 391.065
L 162.513 401
M 180.33 -1
L 181.344 19.4922
L 182.477 38.0886
L 183.713 54.6068
L 184.949 68.2278
L 186.288 80.5437
L 187.73 91.6616
L 189.172 101.08
L 190.717 109.715
L 192.365 117.631
L 194.013 124.497
L 195.764 130.88
L 197.618 136.821
L 199.575 142.36
L 201.635 147.539
L 203.798 152.399
L 206.167 157.175
L 208.639 161.668
L 211.317 166.087
L 214.304 170.578
L 217.6 175.119
L 221.308 179.835
L 225.634 184.962
L 231.196 191.186
L 247.161 208.832
L 251.384 213.957
L 254.989 218.68
L 258.182 223.231
L 261.066 227.732
L 263.641 232.15
L 266.113 236.839
L 268.379 241.619
L 270.542 246.718
L 272.499 251.891
L 274.353 257.401
L 276.104 263.278
L 277.752 269.55
L 279.4 276.718
L 280.945 284.461
L 282.387 292.816
L 283.829 302.562
L 285.168 313.212
L 286.404 324.816
L 287.64 338.647
L 288.773 353.911
L 289.803 370.65
L 290.833 391.065
L 291.263 401
M 309.08 -1
L 310.094 19.4922
L 311.227 38.0886
L 312.463 54.6068
L 313.699 68.2278
L 315.038 80.5437
L 316.48 91.6616
L 317.922 101.08
L 319.467 109.715
L 321.115 117.631
L 322.763 124.497
L 324.514 130.88
L 326.368 136.821
L 328.325 142.36
L 330.385 147.539
L 332.548 152.399
L 334.917 157.175
L 337.389 161.668
L 340.067 166.087
L 343.054 170.578
L 346.35 175.119
L 350.058 179.835
L 354.384 184.962
L 359.946 191.186
L 375.911 208.832
L 380.134 213.957
L 383.739 218.68
L 386.932 223.231
L 389.816 227.732
L 392.391 232.15
L 394.863 236.839
L 397.129 241.619
L 399.292 246.718
L 401.249 251.891
L 403.103 257.401
L 404.854 263.278
L 406.502 269.55
L 408.15 276.718
L 409.695 284.461
L 411.137 292.816
L 412.579 302.562
L 413.918 313.212
L 415.154 324.816
L 416.39 338.647
L 417.523 353.911
L 418.553 370.65
L 419.583 391.065
L 420.013 401
M 437.83 -1
L 438.844 19.4922
L 439.977 38.0886
L 441.213 54.6068
L 442.449 68.2278
L 443.788 80.5437
L 445.23 91.6616
L 446.672 101.08
L 448.217 109.715
L 449.865 117.631
L 451.513 124.497
L 453.264 130.88
L 455.118 136.821
L 457.075 142.36
L 459.135 147.539
L 461.298 152.399
L 463.667 157.175
L 466.139 161.668
L 468.817 166.087
L 471.804 170.578
L 475.1 175.119
L 478.808 179.835
L 483.134 184.962
L 488.696 191.186
L 504.661 208.832
L 508.884 213.957
L 512.489 218.68
L 515.682 223.231
L 518.566 227.732
L 521.141 232.15
L 523.613 236.839
L 525.879 241.619
L 528.042 246.718
L 529.999 251.891
L 531.853 257.401
L 533.604 263.278
L 535.252 269.55
L 536.9 276.718
L 538.445 284.461
L 539.887 292.816
L 541.329 302.562
L 542.668 313.212
L 543.904 324.816
L 545.14 338.647
L 546.273 353.911
L 547.303 370.65
L 548.333 391.065
L 548.763 401" style="fill:none;stroke:#00bb00;stroke-linecap:square;stroke-width:2.4;"/>
      </g>
      <g id="line2d_5">
        <path clip-path="url(#pa82c4e93f3)" d="
M 42.5 151.625
L 45.384 151.515
L 48.268 151.182
L 51.049 150.642
L 53.83 149.873
L 56.508 148.9
L 59.083 147.727
L 61.555 146.355
L 63.924 144.785
L 66.19 143.017
L 68.353 141.049
L 70.413 138.881
L 72.473 136.377
L 74.43 133.635
L 76.284 130.65
L 78.035 127.42
L 79.786 123.716
L 81.434 119.711
L 83.082 115.097
L 84.627 110.101
L 86.172 104.308
L 87.614 98.0139
L 89.056 90.6527
L 90.395 82.6173
L 91.631 73.905
L 92.867 63.6118
L 94 52.3995
L 95.133 38.9811
L 96.163 24.2797
L 97.193 6.40884
L 97.5634 -1
M 115.817 401
L 116.763 381.716
L 117.896 363.017
L 119.029 347.845
L 120.265 334.264
L 121.501 323.019
L 122.84 312.844
L 124.179 304.286
L 125.621 296.48
L 127.063 289.832
L 128.608 283.734
L 130.153 278.49
L 131.801 273.66
L 133.552 269.234
L 135.303 265.406
L 137.157 261.889
L 139.011 258.835
L 140.968 256.03
L 143.028 253.472
L 145.088 251.257
L 147.251 249.247
L 149.517 247.44
L 151.886 245.835
L 154.358 244.431
L 156.933 243.228
L 159.611 242.227
L 162.392 241.432
L 165.173 240.867
L 168.057 240.51
L 170.941 240.376
L 173.825 240.463
L 176.709 240.772
L 179.49 241.287
L 182.271 242.029
L 184.949 242.975
L 187.524 244.119
L 189.996 245.46
L 192.365 246.995
L 194.631 248.725
L 196.794 250.652
L 198.854 252.774
L 200.914 255.224
L 202.871 257.906
L 204.725 260.824
L 206.579 264.177
L 208.33 267.821
L 209.978 271.758
L 211.626 276.289
L 213.171 281.191
L 214.716 286.868
L 216.158 293.027
L 217.6 300.221
L 218.939 308.06
L 220.278 317.314
L 221.514 327.46
L 222.75 339.601
L 223.883 353.019
L 224.913 367.72
L 225.943 385.591
L 226.683 401
M 244.937 -1
L 245.925 17.5649
L 247.058 34.8525
L 248.191 48.9838
L 249.427 61.7128
L 250.766 73.1129
L 252.105 82.6173
L 253.547 91.2194
L 254.989 98.4961
L 256.534 105.132
L 258.079 110.809
L 259.727 116.014
L 261.375 120.505
L 263.126 124.635
L 264.877 128.22
L 266.731 131.52
L 268.688 134.543
L 270.645 137.167
L 272.705 139.564
L 274.868 141.738
L 277.134 143.692
L 279.503 145.431
L 281.872 146.899
L 284.344 148.178
L 286.919 149.264
L 289.597 150.156
L 292.378 150.846
L 295.262 151.327
L 298.146 151.58
L 301.03 151.611
L 303.914 151.422
L 306.798 151.007
L 309.579 150.385
L 312.257 149.564
L 314.935 148.506
L 317.51 147.242
L 319.982 145.772
L 322.351 144.095
L 324.617 142.209
L 326.78 140.111
L 328.84 137.799
L 330.797 135.269
L 332.651 132.522
L 334.505 129.372
L 336.256 125.957
L 338.007 122.032
L 339.655 117.774
L 341.2 113.184
L 342.745 107.888
L 344.187 102.168
L 345.629 95.5202
L 346.968 88.3164
L 348.307 79.8664
L 349.543 70.669
L 350.779 59.7551
L 351.912 47.8069
L 353.045 33.4256
L 354.075 17.5649
L 355.063 -1
M 373.317 401
L 374.263 381.716
L 375.396 363.017
L 376.529 347.845
L 377.765 334.264
L 379.001 323.019
L 380.34 312.844
L 381.679 304.286
L 383.121 296.48
L 384.563 289.832
L 386.108 283.734
L 387.653 278.49
L 389.301 273.66
L 391.052 269.234
L 392.803 265.406
L 394.657 261.889
L 396.511 258.835
L 398.468 256.03
L 400.528 253.472
L 402.588 251.257
L 404.751 249.247
L 407.017 247.44
L 409.386 245.835
L 411.858 244.431
L 414.433 243.228
L 417.111 242.227
L 419.892 241.432
L 422.673 240.867
L 425.557 240.51
L 428.441 240.376
L 431.325 240.463
L 434.209 240.772
L 436.99 241.287
L 439.771 242.029
L 442.449 242.975
L 445.024 244.119
L 447.496 245.46
L 449.865 246.995
L 452.131 248.725
L 454.294 250.652
L 456.354 252.774
L 458.414 255.224
L 460.371 257.906
L 462.225 260.824
L 464.079 264.177
L 465.83 267.821
L 467.478 271.758
L 469.126 276.289
L 470.671 281.191
L 472.216 286.868
L 473.658 293.027
L 475.1 300.221
L 476.439 308.06
L 477.778 317.314
L 479.014 327.46
L 480.25 339.601
L 481.383 353.019
L 482.413 367.72
L 483.443 385.591
L 484.183 401
M 502.437 -1
L 503.425 17.5649
L 504.558 34.8525
L 505.691 48.9838
L 506.927 61.7128
L 508.266 73.1129
L 509.605 82.6173
L 511.047 91.2194
L 512.489 98.4961
L 514.034 105.132
L 515.579 110.809
L 517.227 116.014
L 518.875 120.505
L 520.626 124.635
L 522.377 128.22
L 524.231 131.52
L 526.188 134.543
L 528.145 137.167
L 530.205 139.564
L 532.368 141.738
L 534.634 143.692
L 537.003 145.431
L 539.372 146.899
L 541.844 148.178
L 544.419 149.264
L 547.097 150.156
L 549.878 150.846
L 552.762 151.327
L 555.646 151.58
L 557.5 151.625" style="fill:none;stroke:#00bbcc;stroke-linecap:square;stroke-width:2.4;"/>
      </g>
      <g id="line2d_6">
        <path clip-path="url(#pa82c4e93f3)" d="
M 51.8116 -1
L 52.8 17.5649
L 53.933 34.8525
L 55.066 48.9838
L 56.302 61.7128
L 57.641 73.1129
L 58.98 82.6173
L 60.422 91.2194
L 61.864 98.4961
L 63.409 105.132
L 64.954 110.809
L 66.602 116.014
L 68.25 120.505
L 70.001 124.635
L 71.752 128.22
L 73.606 131.52
L 75.563 134.543
L 77.52 137.167
L 79.58 139.564
L 81.743 141.738
L 84.009 143.692
L 86.378 145.431
L 88.747 146.899
L 91.219 148.178
L 93.794 149.264
L 96.472 150.156
L 99.253 150.846
L 102.137 151.327
L 105.021 151.58
L 107.905 151.611
L 110.789 151.422
L 113.673 151.007
L 116.454 150.385
L 119.132 149.564
L 121.81 148.506
L 124.385 147.242
L 126.857 145.772
L 129.226 144.095
L 131.492 142.209
L 133.655 140.111
L 135.715 137.799
L 137.672 135.269
L 139.526 132.522
L 141.38 129.372
L 143.131 125.957
L 144.882 122.032
L 146.53 117.774
L 148.075 113.184
L 149.62 107.888
L 151.062 102.168
L 152.504 95.5202
L 153.843 88.3164
L 155.182 79.8664
L 156.418 70.669
L 157.654 59.7551
L 158.787 47.8069
L 159.92 33.4256
L 160.95 17.5649
L 161.938 -1
M 180.192 401
L 181.138 381.716
L 182.271 363.017
L 183.404 347.845
L 184.64 334.264
L 185.876 323.019
L 187.215 312.844
L 188.554 304.286
L 189.996 296.48
L 191.438 289.832
L 192.983 283.734
L 194.528 278.49
L 196.176 273.66
L 197.927 269.234
L 199.678 265.406
L 201.532 261.889
L 203.386 258.835
L 205.343 256.03
L 207.403 253.472
L 209.463 251.257
L 211.626 249.247
L 213.892 247.44
L 216.261 245.835
L 218.733 244.431
L 221.308 243.228
L 223.986 242.227
L 226.767 241.432
L 229.548 240.867
L 232.432 240.51
L 235.316 240.376
L 238.2 240.463
L 241.084 240.772
L 243.865 241.287
L 246.646 242.029
L 249.324 242.975
L 251.899 244.119
L 254.371 245.46
L 256.74 246.995
L 259.006 248.725
L 261.169 250.652
L 263.229 252.774
L 265.289 255.224
L 267.246 257.906
L 269.1 260.824
L 270.954 264.177
L 272.705 267.821
L 274.353 271.758
L 276.001 276.289
L 277.546 281.191
L 279.091 286.868
L 280.533 293.027
L 281.975 300.221
L 283.314 308.06
L 284.653 317.314
L 285.889 327.46
L 287.125 339.601
L 288.258 353.019
L 289.288 367.72
L 290.318 385.591
L 291.058 401
M 309.312 -1
L 310.3 17.5649
L 311.433 34.8525
L 312.566 48.9838
L 313.802 61.7128
L 315.141 73.1129
L 316.48 82.6173
L 317.922 91.2194
L 319.364 98.4961
L 320.909 105.132
L 322.454 110.809
L 324.102 116.014
L 325.75 120.505
L 327.501 124.635
L 329.252 128.22
L 331.106 131.52
L 333.063 134.543
L 335.02 137.167
L 337.08 139.564
L 339.243 141.738
L 341.509 143.692
L 343.878 145.431
L 346.247 146.899
L 348.719 148.178
L 351.294 149.264
L 353.972 150.156
L 356.753 150.846
L 359.637 151.327
L 362.521 151.58
L 365.405 151.611
L 368.289 151.422
L 371.173 151.007
L 373.954 150.385
L 376.632 149.564
L 379.31 148.506
L 381.885 147.242
L 384.357 145.772
L 386.726 144.095
L 388.992 142.209
L 391.155 140.111
L 393.215 137.799
L 395.172 135.269
L 397.026 132.522
L 398.88 129.372
L 400.631 125.957
L 402.382 122.032
L 404.03 117.774
L 405.575 113.184
L 407.12 107.888
L 408.562 102.168
L 410.004 95.5202
L 411.343 88.3164
L 412.682 79.8664
L 413.918 70.669
L 415.154 59.7551
L 416.287 47.8069
L 417.42 33.4256
L 418.45 17.5649
L 419.438 -1
M 437.692 401
L 438.638 381.716
L 439.771 363.017
L 440.904 347.845
L 442.14 334.264
L 443.376 323.019
L 444.715 312.844
L 446.054 304.286
L 447.496 296.48
L 448.938 289.832
L 450.483 283.734
L 452.028 278.49
L 453.676 273.66
L 455.427 269.234
L 457.178 265.406
L 459.032 261.889
L 460.886 258.835
L 462.843 256.03
L 464.903 253.472
L 466.963 251.257
L 469.126 249.247
L 471.392 247.44
L 473.761 245.835
L 476.233 244.431
L 478.808 243.228
L 481.486 242.227
L 484.267 241.432
L 487.048 240.867
L 489.932 240.51
L 492.816 240.376
L 495.7 240.463
L 498.584 240.772
L 501.365 241.287
L 504.146 242.029
L 506.824 242.975
L 509.399 244.119
L 511.871 245.46
L 514.24 246.995
L 516.506 248.725
L 518.669 250.652
L 520.729 252.774
L 522.789 255.224
L 524.746 257.906
L 526.6 260.824
L 528.454 264.177
L 530.205 267.821
L 531.853 271.758
L 533.501 276.289
L 535.046 281.191
L 536.591 286.868
L 538.033 293.027
L 539.475 300.221
L 540.814 308.06
L 542.153 317.314
L 543.389 327.46
L 544.625 339.601
L 545.758 353.019
L 546.788 367.72
L 547.818 385.591
L 548.558 401" style="fill:none;stroke:#af77dd;stroke-linecap:square;stroke-width:2.4;"/>
      </g>
      <g id="matplotlib.axis_1">
        <g id="xtick_1">
          <g id="line2d_7">
            <path clip-path="url(#pa82c4e93f3)" d="
M 42.5 373.5
L 42.5 18.5" style="fill:none;stroke:#000000;stroke-dasharray:1.000000,3.000000;stroke-dashoffset:0.0;stroke-width:0.5;"/>
          </g>
          <g id="line2d_8">
            <defs>
              <path d="
M 0 0
L 0 -4" id="m56cb9a4f4c" style="stroke:#000000;stroke-width:1.25;"/>
            </defs>
            <g>
              <use style="stroke:#000000;stroke-width:1.25;" x="42.5" xlink:href="#m56cb9a4f4c" y="373.5"/>
            </g>
          </g>
          <g id="line2d_9">
            <defs>
              <path d="
M 0 0
L 0 4" id="m01134c304f" style="stroke:#000000;stroke-width:1.25;"/>
            </defs>
            <g>
              <use style="stroke:#000000;stroke-width:1.25;" x="42.5" xlink:href="#m01134c304f" y="18.5"/>
            </g>
          </g>
          <g id="text_1">
            <!-- −2π -->
            <defs>
              <path d="
M 19.1875 8.29688
L 53.6094 8.29688
L 53.6094 0
L 7.32812 0
L 7.32812 8.29688
Q 12.9375 14.1094 22.625 23.8906
Q 32.3281 33.6875 34.8125 36.5312
Q 39.5469 41.8438 41.4219 45.5312
Q 43.3125 49.2188 43.3125 52.7812
Q 43.3125 58.5938 39.2344 62.25
Q 35.1562 65.9219 28.6094 65.9219
Q 23.9688 65.9219 18.8125 64.3125
Q 13.6719 62.7031 7.8125 59.4219
L 7.8125 69.3906
Q 13.7656 71.7812 18.9375 73
Q 24.125 74.2188 28.4219 74.2188
Q 39.75 74.2188 46.4844 68.5469
Q 53.2188 62.8906 53.2188 53.4219
Q 53.2188 48.9219 51.5312 44.8906
Q 49.8594 40.875 45.4062 35.4062
Q 44.1875 33.9844 37.6406 27.2188
Q 31.1094 20.4531 19.1875 8.29688" id="DejaVuSans-32"/>
              <path d="
M 3.60938 54.6875
L 56 54.6875
L 56 45.7031
L 49.125 45.7031
L 49.125 12.1094
Q 49.125 8.59375 50.3125 7.04688
Q 51.5156 5.51562 54.2031 5.51562
Q 54.9375 5.51562 56 5.64062
Q 57.0781 5.76562 57.4219 5.8125
L 57.4219 -0.6875
Q 55.7188 -1.3125 53.9062 -1.60938
Q 52.0938 -1.90625 50.2969 -1.90625
Q 44.4375 -1.90625 42.1875 1.29688
Q 39.9375 4.5 39.9375 13.0938
L 39.9375 45.7031
L 19.7812 45.7031
L 19.7812 0
L 10.5938 0
L 10.5938 45.7031
L 3.60938 45.7031
z 
" id="DejaVuSans-3c0"/>
              <path d="
M 10.5938 35.5
L 73.1875 35.5
L 73.1875 27.2031
L 10.5938 27.2031
z 
" id="DejaVuSans-2212"/>
            </defs>
            <g transform="translate(26.96 392.6575)scale(0.16 -0.16)">
              <use xlink:href="#DejaVuSans-2212"/>
              <use x="83.7890625" xlink:href="#DejaVuSans-32"/>
              <use x="147.412109375" xlink:href="#DejaVuSans-3c0"/>
            </g>
          </g>
        </g>
        <g id="xtick_2">
          <g id="line2d_10">
            <path clip-path="url(#pa82c4e93f3)" d="
M 106.875 373.5
L 106.875 18.5" style="fill:none;stroke:#000000;stroke-dasharray:1.000000,3.000000;stroke-dashoffset:0.0;stroke-width:0.5;"/>
          </g>
          <g id="line2d_11">
            <g>
              <use style="stroke:#000000;stroke-width:1.25;" x="106.875" xlink:href="#m56cb9a4f4c" y="373.5"/>
            </g>
          </g>
          <g id="line2d_12">
            <g>
              <use style="stroke:#000000;stroke-width:1.25;" x="106.875" xlink:href="#m01134c304f" y="18.5"/>
            </g>
          </g>
        </g>
        <g id="xtick_3">
          <g id="line2d_13">
            <path clip-path="url(#pa82c4e93f3)" d="
M 171.25 373.5
L 171.25 18.5" style="fill:none;stroke:#000000;stroke-dasharray:1.000000,3.000000;stroke-dashoffset:0.0;stroke-width:0.5;"/>
          </g>
          <g id="line2d_14">
            <g>
              <use style="stroke:#000000;stroke-width:1.25;" x="171.25" xlink:href="#m56cb9a4f4c" y="373.5"/>
            </g>
          </g>
          <g id="line2d_15">
            <g>
              <use style="stroke:#000000;stroke-width:1.25;" x="171.25" xlink:href="#m01134c304f" y="18.5"/>
            </g>
          </g>
          <g id="text_2">
            <!-- −1π -->
            <defs>
              <path d="
M 12.4062 8.29688
L 28.5156 8.29688
L 28.5156 63.9219
L 10.9844 60.4062
L 10.9844 69.3906
L 28.4219 72.9062
L 38.2812 72.9062
L 38.2812 8.29688
L 54.3906 8.29688
L 54.3906 0
L 12.4062 0
z 
" id="DejaVuSans-31"/>
            </defs>
            <g transform="translate(155.71 392.6575)scale(0.16 -0.16)">
              <use xlink:href="#DejaVuSans-2212"/>
              <use x="83.7890625" xlink:href="#DejaVuSans-31"/>
              <use x="147.412109375" xlink:href="#DejaVuSans-3c0"/>
            </g>
          </g>
        </g>
        <g id="xtick_4">
          <g id="line2d_16">
            <path clip-path="url(#pa82c4e93f3)" d="
M 235.625 373.5
L 235.625 18.5" style="fill:none;stroke:#000000;stroke-dasharray:1.000000,3.000000;stroke-dashoffset:0.0;stroke-width:0.5;"/>
          </g>
          <g id="line2d_17">
            <g>
              <use style="stroke:#000000;stroke-width:1.25;" x="235.625" xlink:href="#m56cb9a4f4c" y="373.5"/>
            </g>
          </g>
          <g id="line2d_18">
            <g>
              <use style="stroke:#000000;stroke-width:1.25;" x="235.625" xlink:href="#m01134c304f" y="18.5"/>
            </g>
          </g>
        </g>
        <g id="xtick_5">
          <g id="line2d_19">
            <path clip-path="url(#pa82c4e93f3)" d="
M 300 373.5
L 300 18.5" style="fill:none;stroke:#000000;stroke-dasharray:3.000000,1.000000;stroke-dashoffset:0.0;stroke-width:0.5;"/>
          </g>
          <g id="line2d_20">
            <g>
              <use style="stroke:#000000;stroke-width:1.25;" x="300.0" xlink:href="#m56cb9a4f4c" y="373.5"/>
            </g>
          </g>
          <g id="line2d_21">
            <g>
              <use style="stroke:#000000;stroke-width:1.25;" x="300.0" xlink:href="#m01134c304f" y="18.5"/>
            </g>
          </g>
          <g id="text_3">
            <!-- 0π -->
            <defs>
              <path d="
M 31.7812 66.4062
Q 24.1719 66.4062 20.3281 58.9062
Q 16.5 51.4219 16.5 36.375
Q 16.5 21.3906 20.3281 13.8906
Q 24.1719 6.39062 31.7812 6.39062
Q 39.4531 6.39062 43.2812 13.8906
Q 47.125 21.3906 47.125 36.375
Q 47.125 51.4219 43.2812 58.9062
Q 39.4531 66.4062 31.7812 66.4062
M 31.7812 74.2188
Q 44.0469 74.2188 50.5156 64.5156
Q 56.9844 54.8281 56.9844 36.375
Q 56.9844 17.9688 50.5156 8.26562
Q 44.0469 -1.42188 31.7812 -1.42188
Q 19.5312 -1.42188 13.0625 8.26562
Q 6.59375 17.9688 6.59375 36.375
Q 6.59375 54.8281 13.0625 64.5156
Q 19.5312 74.2188 31.7812 74.2188" id="DejaVuSans-30"/>
            </defs>
            <g transform="translate(290.84375 392.6575)scale(0.16 -0.16)">
              <use xlink:href="#DejaVuSans-30"/>
              <use x="63.623046875" xlink:href="#DejaVuSans-3c0"/>
            </g>
          </g>
        </g>
        <g id="xtick_6">
          <g id="line2d_22">
            <path clip-path="url(#pa82c4e93f3)" d="
M 364.375 373.5
L 364.375 18.5" style="fill:none;stroke:#000000;stroke-dasharray:1.000000,3.000000;stroke-dashoffset:0.0;stroke-width:0.5;"/>
          </g>
          <g id="line2d_23">
            <g>
              <use style="stroke:#000000;stroke-width:1.25;" x="364.375" xlink:href="#m56cb9a4f4c" y="373.5"/>
            </g>
          </g>
          <g id="line2d_24">
            <g>
              <use style="stroke:#000000;stroke-width:1.25;" x="364.375" xlink:href="#m01134c304f" y="18.5"/>
            </g>
          </g>
        </g>
        <g id="xtick_7">
          <g id="line2d_25">
            <path clip-path="url(#pa82c4e93f3)" d="
M 428.75 373.5
L 428.75 18.5" style="fill:none;stroke:#000000;stroke-dasharray:1.000000,3.000000;stroke-dashoffset:0.0;stroke-width:0.5;"/>
          </g>
          <g id="line2d_26">
            <g>
              <use style="stroke:#000000;stroke-width:1.25;" x="428.75" xlink:href="#m56cb9a4f4c" y="373.5"/>
            </g>
          </g>
          <g id="line2d_27">
            <g>
              <use style="stroke:#000000;stroke-width:1.25;" x="428.75" xlink:href="#m01134c304f" y="18.5"/>
            </g>
          </g>
          <g id="text_4">
            <!-- 1π -->
            <g transform="translate(419.945 392.6575)scale(0.16 -0.16)">
              <use xlink:href="#DejaVuSans-31"/>
              <use x="63.623046875" xlink:href="#DejaVuSans-3c0"/>
            </g>
          </g>
        </g>
        <g id="xtick_8">
          <g id="line2d_28">
            <path clip-path="url(#pa82c4e93f3)" d="
M 493.125 373.5
L 493.125 18.5" style="fill:none;stroke:#000000;stroke-dasharray:1.000000,3.000000;stroke-dashoffset:0.0;stroke-width:0.5;"/>
          </g>
          <g id="line2d_29">
            <g>
              <use style="stroke:#000000;stroke-width:1.25;" x="493.125" xlink:href="#m56cb9a4f4c" y="373.5"/>
            </g>
          </g>
          <g id="line2d_30">
            <g>
              <use style="stroke:#000000;stroke-width:1.25;" x="493.125" xlink:href="#m01134c304f" y="18.5"/>
            </g>
          </g>
        </g>
        <g id="xtick_9">
          <g id="line2d_31">
            <path clip-path="url(#pa82c4e93f3)" d="
M 557.5 373.5
L 557.5 18.5" style="fill:none;stroke:#000000;stroke-dasharray:1.000000,3.000000;stroke-dashoffset:0.0;stroke-width:0.5;"/>
          </g>
          <g id="line2d_32">
            <g>
              <use style="stroke:#000000;stroke-width:1.25;" x="557.5" xlink:href="#m56cb9a4f4c" y="373.5"/>
            </g>
          </g>
          <g id="line2d_33">
            <g>
              <use style="stroke:#000000;stroke-width:1.25;" x="557.5" xlink:href="#m01134c304f" y="18.5"/>
            </g>
          </g>
          <g id="text_5">
            <!-- 2π -->
            <g transform="translate(548.4025 392.6575)scale(0.16 -0.16)">
              <use xlink:href="#DejaVuSans-32"/>
              <use x="63.623046875" xlink:href="#DejaVuSans-3c0"/>
            </g>
          </g>
        </g>
      </g>
      <g id="matplotlib.axis_2">
        <g id="ytick_1">
          <g id="line2d_34">
            <path clip-path="url(#pa82c4e93f3)" d="
M 42.5 373.5
L 557.5 373.5" style="fill:none;stroke:#000000;stroke-dasharray:1.000000,3.000000;stroke-dashoffset:0.0;stroke-width:0.5;"/>
          </g>
          <g id="line2d_35">
            <defs>
              <path d="
M 0 0
L 4 0" id="m86ea02120d" style="stroke:#000000;stroke-width:1.25;"/>
            </defs>
            <g>
              <use style="stroke:#000000;stroke-width:1.25;" x="42.5" xlink:href="#m86ea02120d" y="373.5"/>
            </g>
          </g>
          <g id="line2d_36">
            <defs>
              <path d="
M 0 0
L -4 0" id="m08e0baaaa9" style="stroke:#000000;stroke-width:1.25;"/>
            </defs>
            <g>
              <use style="stroke:#000000;stroke-width:1.25;" x="557.5" xlink:href="#m08e0baaaa9" y="373.5"/>
            </g>
          </g>
          <g id="text_6">
            <!-- −4 -->
            <defs>
              <path d="
M 37.7969 64.3125
L 12.8906 25.3906
L 37.7969 25.3906
z 

M 35.2031 72.9062
L 47.6094 72.9062
L 47.6094 25.3906
L 58.0156 25.3906
L 58.0156 17.1875
L 47.6094 17.1875
L 47.6094 0
L 37.7969 0
L 37.7969 17.1875
L 4.89062 17.1875
L 4.89062 26.7031
z 
" id="DejaVuSans-34"/>
            </defs>
            <g transform="translate(14.505 377.915)scale(0.16 -0.16)">
              <use xlink:href="#DejaVuSans-2212"/>
              <use x="83.7890625" xlink:href="#DejaVuSans-34"/>
            </g>
          </g>
        </g>
        <g id="ytick_2">
          <g id="line2d_37">
            <path clip-path="url(#pa82c4e93f3)" d="
M 42.5 329.125
L 557.5 329.125" style="fill:none;stroke:#000000;stroke-dasharray:1.000000,3.000000;stroke-dashoffset:0.0;stroke-width:0.5;"/>
          </g>
          <g id="line2d_38">
            <g>
              <use style="stroke:#000000;stroke-width:1.25;" x="42.5" xlink:href="#m86ea02120d" y="329.125"/>
            </g>
          </g>
          <g id="line2d_39">
            <g>
              <use style="stroke:#000000;stroke-width:1.25;" x="557.5" xlink:href="#m08e0baaaa9" y="329.125"/>
            </g>
          </g>
          <g id="text_7">
            <!-- −3 -->
            <defs>
              <path d="
M 40.5781 39.3125
Q 47.6562 37.7969 51.625 33
Q 55.6094 28.2188 55.6094 21.1875
Q 55.6094 10.4062 48.1875 4.48438
Q 40.7656 -1.42188 27.0938 -1.42188
Q 22.5156 -1.42188 17.6562 -0.515625
Q 12.7969 0.390625 7.625 2.20312
L 7.625 11.7188
Q 11.7188 9.32812 16.5938 8.10938
Q 21.4844 6.89062 26.8125 6.89062
Q 36.0781 6.89062 40.9375 10.5469
Q 45.7969 14.2031 45.7969 21.1875
Q 45.7969 27.6406 41.2812 31.2656
Q 36.7656 34.9062 28.7188 34.9062
L 20.2188 34.9062
L 20.2188 43.0156
L 29.1094 43.0156
Q 36.375 43.0156 40.2344 45.9219
Q 44.0938 48.8281 44.0938 54.2969
Q 44.0938 59.9062 40.1094 62.9062
Q 36.1406 65.9219 28.7188 65.9219
Q 24.6562 65.9219 20.0156 65.0312
Q 15.375 64.1562 9.8125 62.3125
L 9.8125 71.0938
Q 15.4375 72.6562 20.3438 73.4375
Q 25.25 74.2188 29.5938 74.2188
Q 40.8281 74.2188 47.3594 69.1094
Q 53.9062 64.0156 53.9062 55.3281
Q 53.9062 49.2656 50.4375 45.0938
Q 46.9688 40.9219 40.5781 39.3125" id="DejaVuSans-33"/>
            </defs>
            <g transform="translate(14.89 333.54)scale(0.16 -0.16)">
              <use xlink:href="#DejaVuSans-2212"/>
              <use x="83.7890625" xlink:href="#DejaVuSans-33"/>
            </g>
          </g>
        </g>
        <g id="ytick_3">
          <g id="line2d_40">
            <path clip-path="url(#pa82c4e93f3)" d="
M 42.5 284.75
L 557.5 284.75" style="fill:none;stroke:#000000;stroke-dasharray:1.000000,3.000000;stroke-dashoffset:0.0;stroke-width:0.5;"/>
          </g>
          <g id="line2d_41">
            <g>
              <use style="stroke:#000000;stroke-width:1.25;" x="42.5" xlink:href="#m86ea02120d" y="284.75"/>
            </g>
          </g>
          <g id="line2d_42">
            <g>
              <use style="stroke:#000000;stroke-width:1.25;" x="557.5" xlink:href="#m08e0baaaa9" y="284.75"/>
            </g>
          </g>
          <g id="text_8">
            <!-- −2 -->
            <g transform="translate(15.21 289.165)scale(0.16 -0.16)">
              <use xlink:href="#DejaVuSans-2212"/>
              <use x="83.7890625" xlink:href="#DejaVuSans-32"/>
            </g>
          </g>
        </g>
        <g id="ytick_4">
          <g id="line2d_43">
            <path clip-path="url(#pa82c4e93f3)" d="
M 42.5 240.375
L 557.5 240.375" style="fill:none;stroke:#000000;stroke-dasharray:1.000000,3.000000;stroke-dashoffset:0.0;stroke-width:0.5;"/>
          </g>
          <g id="line2d_44">
            <g>
              <use style="stroke:#000000;stroke-width:1.25;" x="42.5" xlink:href="#m86ea02120d" y="240.375"/>
            </g>
          </g>
          <g id="line2d_45">
            <g>
              <use style="stroke:#000000;stroke-width:1.25;" x="557.5" xlink:href="#m08e0baaaa9" y="240.375"/>
            </g>
          </g>
          <g id="text_9">
            <!-- −1 -->
            <g transform="translate(15.085 244.79)scale(0.16 -0.16)">
              <use xlink:href="#DejaVuSans-2212"/>
              <use x="83.7890625" xlink:href="#DejaVuSans-31"/>
            </g>
          </g>
        </g>
        <g id="ytick_5">
          <g id="line2d_46">
            <path clip-path="url(#pa82c4e93f3)" d="
M 42.5 196
L 557.5 196" style="fill:none;stroke:#000000;stroke-dasharray:3.000000,1.000000;stroke-dashoffset:0.0;stroke-width:0.5;"/>
          </g>
          <g id="line2d_47">
            <g>
              <use style="stroke:#000000;stroke-width:1.25;" x="42.5" xlink:href="#m86ea02120d" y="196.0"/>
            </g>
          </g>
          <g id="line2d_48">
            <g>
              <use style="stroke:#000000;stroke-width:1.25;" x="557.5" xlink:href="#m08e0baaaa9" y="196.0"/>
            </g>
          </g>
          <g id="text_10">
            <!-- 0 -->
            <g transform="translate(27.4375 200.415)scale(0.16 -0.16)">
              <use xlink:href="#DejaVuSans-30"/>
            </g>
          </g>
        </g>
        <g id="ytick_6">
          <g id="line2d_49">
            <path clip-path="url(#pa82c4e93f3)" d="
M 42.5 151.625
L 557.5 151.625" style="fill:none;stroke:#000000;stroke-dasharray:1.000000,3.000000;stroke-dashoffset:0.0;stroke-width:0.5;"/>
          </g>
          <g id="line2d_50">
            <g>
              <use style="stroke:#000000;stroke-width:1.25;" x="42.5" xlink:href="#m86ea02120d" y="151.625"/>
            </g>
          </g>
          <g id="line2d_51">
            <g>
              <use style="stroke:#000000;stroke-width:1.25;" x="557.5" xlink:href="#m08e0baaaa9" y="151.625"/>
            </g>
          </g>
          <g id="text_11">
            <!-- 1 -->
            <g transform="translate(28.555 156.04)scale(0.16 -0.16)">
              <use xlink:href="#DejaVuSans-31"/>
            </g>
          </g>
        </g>
        <g id="ytick_7">
          <g id="line2d_52">
            <path clip-path="url(#pa82c4e93f3)" d="
M 42.5 107.25
L 557.5 107.25" style="fill:none;stroke:#000000;stroke-dasharray:1.000000,3.000000;stroke-dashoffset:0.0;stroke-width:0.5;"/>
          </g>
          <g id="line2d_53">
            <g>
              <use style="stroke:#000000;stroke-width:1.25;" x="42.5" xlink:href="#m86ea02120d" y="107.25"/>
            </g>
          </g>
          <g id="line2d_54">
            <g>
              <use style="stroke:#000000;stroke-width:1.25;" x="557.5" xlink:href="#m08e0baaaa9" y="107.25"/>
            </g>
          </g>
          <g id="text_12">
            <!-- 2 -->
            <g transform="translate(28.095 111.665)scale(0.16 -0.16)">
              <use xlink:href="#DejaVuSans-32"/>
            </g>
          </g>
        </g>
        <g id="ytick_8">
          <g id="line2d_55">
            <path clip-path="url(#pa82c4e93f3)" d="
M 42.5 62.875
L 557.5 62.875" style="fill:none;stroke:#000000;stroke-dasharray:1.000000,3.000000;stroke-dashoffset:0.0;stroke-width:0.5;"/>
          </g>
          <g id="line2d_56">
            <g>
              <use style="stroke:#000000;stroke-width:1.25;" x="42.5" xlink:href="#m86ea02120d" y="62.875"/>
            </g>
          </g>
          <g id="line2d_57">
            <g>
              <use style="stroke:#000000;stroke-width:1.25;" x="557.5" xlink:href="#m08e0baaaa9" y="62.875"/>
            </g>
          </g>
          <g id="text_13">
            <!-- 3 -->
            <g transform="translate(27.8225 67.29)scale(0.16 -0.16)">
              <use xlink:href="#DejaVuSans-33"/>
            </g>
          </g>
        </g>
        <g id="ytick_9">
          <g id="line2d_58">
            <path clip-path="url(#pa82c4e93f3)" d="
M 42.5 18.5
L 557.5 18.5" style="fill:none;stroke:#000000;stroke-dasharray:1.000000,3.000000;stroke-dashoffset:0.0;stroke-width:0.5;"/>
          </g>
          <g id="line2d_59">
            <g>
              <use style="stroke:#000000;stroke-width:1.25;" x="42.5" xlink:href="#m86ea02120d" y="18.5"/>
            </g>
          </g>
          <g id="line2d_60">
            <g>
              <use style="stroke:#000000;stroke-width:1.25;" x="557.5" xlink:href="#m08e0baaaa9" y="18.5"/>
            </g>
          </g>
          <g id="text_14">
            <!-- 4 -->
            <g transform="translate(27.0 22.915)scale(0.16 -0.16)">
              <use xlink:href="#DejaVuSans-34"/>
            </g>
          </g>
        </g>
      </g>
      <g id="patch_3">
        <path d="
M 42.5 18.5
L 557.5 18.5" style="fill:none;stroke:#000000;stroke-width:1.25;"/>
      </g>
      <g id="patch_4">
        <path d="
M 557.5 373.5
L 557.5 18.5" style="fill:none;stroke:#000000;stroke-width:1.25;"/>
      </g>
      <g id="patch_5">
        <path d="
M 42.5 373.5
L 557.5 373.5" style="fill:none;stroke:#000000;stroke-width:1.25;"/>
      </g>
      <g id="patch_6">
        <path d="
M 42.5 373.5
L 42.5 18.5" style="fill:none;stroke:#000000;stroke-width:1.25;"/>
      </g>
      <g id="legend_1">
        <g id="patch_7">
          <path d="
M 128.395 95.984
L 471.604 95.984
L 471.604 33.86
L 128.395 33.86
L 128.395 95.984
z 
" style="fill:#ffffff;opacity:0.9;stroke:#000000;"/>
        </g>
        <g id="line2d_61">
          <path d="
M 141.835 49.409
L 168.715 49.409" style="fill:none;stroke:#0000cc;stroke-linecap:square;stroke-width:2.4;"/>
        </g>
        <g id="line2d_62"/>
        <g id="text_15">
          <!-- sin -->
          <defs>
            <path d="
M 54.8906 33.0156
L 54.8906 0
L 45.9062 0
L 45.9062 32.7188
Q 45.9062 40.4844 42.875 44.3281
Q 39.8438 48.1875 33.7969 48.1875
Q 26.5156 48.1875 22.3125 43.5469
Q 18.1094 38.9219 18.1094 30.9062
L 18.1094 0
L 9.07812 0
L 9.07812 54.6875
L 18.1094 54.6875
L 18.1094 46.1875
Q 21.3438 51.125 25.7031 53.5625
Q 30.0781 56 35.7969 56
Q 45.2188 56 50.0469 50.1719
Q 54.8906 44.3438 54.8906 33.0156" id="DejaVuSans-6e"/>
            <path d="
M 44.2812 53.0781
L 44.2812 44.5781
Q 40.4844 46.5312 36.375 47.5
Q 32.2812 48.4844 27.875 48.4844
Q 21.1875 48.4844 17.8438 46.4375
Q 14.5 44.3906 14.5 40.2812
Q 14.5 37.1562 16.8906 35.375
Q 19.2812 33.5938 26.5156 31.9844
L 29.5938 31.2969
Q 39.1562 29.25 43.1875 25.5156
Q 47.2188 21.7812 47.2188 15.0938
Q 47.2188 7.46875 41.1875 3.01562
Q 35.1562 -1.42188 24.6094 -1.42188
Q 20.2188 -1.42188 15.4531 -0.5625
Q 10.6875 0.296875 5.42188 2
L 5.42188 11.2812
Q 10.4062 8.6875 15.2344 7.39062
Q 20.0625 6.10938 24.8125 6.10938
Q 31.1562 6.10938 34.5625 8.28125
Q 37.9844 10.4531 37.9844 14.4062
Q 37.9844 18.0625 35.5156 20.0156
Q 33.0625 21.9688 24.7031 23.7812
L 21.5781 24.5156
Q 13.2344 26.2656 9.51562 29.9062
Q 5.8125 33.5469 5.8125 39.8906
Q 5.8125 47.6094 11.2812 51.7969
Q 16.75 56 26.8125 56
Q 31.7812 56 36.1719 55.2656
Q 40.5781 54.5469 44.2812 53.0781" id="DejaVuSans-73"/>
            <path d="
M 9.42188 54.6875
L 18.4062 54.6875
L 18.4062 0
L 9.42188 0
z 

M 9.42188 75.9844
L 18.4062 75.9844
L 18.4062 64.5938
L 9.42188 64.5938
z 
" id="DejaVuSans-69"/>
          </defs>
          <g transform="translate(189.8355 56.129)scale(0.192 -0.192)">
            <use xlink:href="#DejaVuSans-73"/>
            <use x="52.099609375" xlink:href="#DejaVuSans-69"/>
            <use x="79.8828125" xlink:href="#DejaVuSans-6e"/>
          </g>
        </g>
        <g id="line2d_63">
          <path d="
M 141.835 77.591
L 168.715 77.591" style="fill:none;stroke:#dd00aa;stroke-linecap:square;stroke-width:2.4;"/>
        </g>
        <g id="line2d_64"/>
        <g id="text_16">
          <!-- cos -->
          <defs>
            <path d="
M 30.6094 48.3906
Q 23.3906 48.3906 19.1875 42.75
Q 14.9844 37.1094 14.9844 27.2969
Q 14.9844 17.4844 19.1562 11.8438
Q 23.3438 6.20312 30.6094 6.20312
Q 37.7969 6.20312 41.9844 11.8594
Q 46.1875 17.5312 46.1875 27.2969
Q 46.1875 37.0156 41.9844 42.7031
Q 37.7969 48.3906 30.6094 48.3906
M 30.6094 56
Q 42.3281 56 49.0156 48.375
Q 55.7188 40.7656 55.7188 27.2969
Q 55.7188 13.875 49.0156 6.21875
Q 42.3281 -1.42188 30.6094 -1.42188
Q 18.8438 -1.42188 12.1719 6.21875
Q 5.51562 13.875 5.51562 27.2969
Q 5.51562 40.7656 12.1719 48.375
Q 18.8438 56 30.6094 56" id="DejaVuSans-6f"/>
            <path d="
M 48.7812 52.5938
L 48.7812 44.1875
Q 44.9688 46.2969 41.1406 47.3438
Q 37.3125 48.3906 33.4062 48.3906
Q 24.6562 48.3906 19.8125 42.8438
Q 14.9844 37.3125 14.9844 27.2969
Q 14.9844 17.2812 19.8125 11.7344
Q 24.6562 6.20312 33.4062 6.20312
Q 37.3125 6.20312 41.1406 7.25
Q 44.9688 8.29688 48.7812 10.4062
L 48.7812 2.09375
Q 45.0156 0.34375 40.9844 -0.53125
Q 36.9688 -1.42188 32.4219 -1.42188
Q 20.0625 -1.42188 12.7812 6.34375
Q 5.51562 14.1094 5.51562 27.2969
Q 5.51562 40.6719 12.8594 48.3281
Q 20.2188 56 33.0156 56
Q 37.1562 56 41.1094 55.1406
Q 45.0625 54.2969 48.7812 52.5938" id="DejaVuSans-63"/>
          </defs>
          <g transform="translate(189.8355 84.311)scale(0.192 -0.192)">
            <use xlink:href="#DejaVuSans-63"/>
            <use x="54.98046875" xlink:href="#DejaVuSans-6f"/>
            <use x="116.162109375" xlink:href="#DejaVuSans-73"/>
          </g>
        </g>
        <g id="line2d_65">
          <path d="
M 264.307 49.409
L 291.187 49.409" style="fill:none;stroke:#999900;stroke-linecap:square;stroke-width:2.4;"/>
        </g>
        <g id="line2d_66"/>
        <g id="text_17">
          <!-- tan -->
          <defs>
            <path d="
M 18.3125 70.2188
L 18.3125 54.6875
L 36.8125 54.6875
L 36.8125 47.7031
L 18.3125 47.7031
L 18.3125 18.0156
Q 18.3125 11.3281 20.1406 9.42188
Q 21.9688 7.51562 27.5938 7.51562
L 36.8125 7.51562
L 36.8125 0
L 27.5938 0
Q 17.1875 0 13.2344 3.875
Q 9.28125 7.76562 9.28125 18.0156
L 9.28125 47.7031
L 2.6875 47.7031
L 2.6875 54.6875
L 9.28125 54.6875
L 9.28125 70.2188
z 
" id="DejaVuSans-74"/>
            <path d="
M 34.2812 27.4844
Q 23.3906 27.4844 19.1875 25
Q 14.9844 22.5156 14.9844 16.5
Q 14.9844 11.7188 18.1406 8.90625
Q 21.2969 6.10938 26.7031 6.10938
Q 34.1875 6.10938 38.7031 11.4062
Q 43.2188 16.7031 43.2188 25.4844
L 43.2188 27.4844
z 

M 52.2031 31.2031
L 52.2031 0
L 43.2188 0
L 43.2188 8.29688
Q 40.1406 3.32812 35.5469 0.953125
Q 30.9531 -1.42188 24.3125 -1.42188
Q 15.9219 -1.42188 10.9531 3.29688
Q 6 8.01562 6 15.9219
Q 6 25.1406 12.1719 29.8281
Q 18.3594 34.5156 30.6094 34.5156
L 43.2188 34.5156
L 43.2188 35.4062
Q 43.2188 41.6094 39.1406 45
Q 35.0625 48.3906 27.6875 48.3906
Q 23 48.3906 18.5469 47.2656
Q 14.1094 46.1406 10.0156 43.8906
L 10.0156 52.2031
Q 14.9375 54.1094 19.5781 55.0469
Q 24.2188 56 28.6094 56
Q 40.4844 56 46.3438 49.8438
Q 52.2031 43.7031 52.2031 31.2031" id="DejaVuSans-61"/>
          </defs>
          <g transform="translate(312.3075 56.129)scale(0.192 -0.192)">
            <use xlink:href="#DejaVuSans-74"/>
            <use x="39.208984375" xlink:href="#DejaVuSans-61"/>
            <use x="100.48828125" xlink:href="#DejaVuSans-6e"/>
          </g>
        </g>
        <g id="line2d_67">
          <path d="
M 264.307 77.591
L 291.187 77.591" style="fill:none;stroke:#00bb00;stroke-linecap:square;stroke-width:2.4;"/>
        </g>
        <g id="line2d_68"/>
        <g id="text_18">
          <!-- cot -->
          <g transform="translate(312.3075 84.311)scale(0.192 -0.192)">
            <use xlink:href="#DejaVuSans-63"/>
            <use x="54.98046875" xlink:href="#DejaVuSans-6f"/>
            <use x="116.162109375" xlink:href="#DejaVuSans-74"/>
          </g>
        </g>
        <g id="line2d_69">
          <path d="
M 385.783 49.409
L 412.663 49.409" style="fill:none;stroke:#00bbcc;stroke-linecap:square;stroke-width:2.4;"/>
        </g>
        <g id="line2d_70"/>
        <g id="text_19">
          <!-- sec -->
          <defs>
            <path d="
M 56.2031 29.5938
L 56.2031 25.2031
L 14.8906 25.2031
Q 15.4844 15.9219 20.4844 11.0625
Q 25.4844 6.20312 34.4219 6.20312
Q 39.5938 6.20312 44.4531 7.46875
Q 49.3125 8.73438 54.1094 11.2812
L 54.1094 2.78125
Q 49.2656 0.734375 44.1875 -0.34375
Q 39.1094 -1.42188 33.8906 -1.42188
Q 20.7969 -1.42188 13.1562 6.1875
Q 5.51562 13.8125 5.51562 26.8125
Q 5.51562 40.2344 12.7656 48.1094
Q 20.0156 56 32.3281 56
Q 43.3594 56 49.7812 48.8906
Q 56.2031 41.7969 56.2031 29.5938
M 47.2188 32.2344
Q 47.125 39.5938 43.0938 43.9844
Q 39.0625 48.3906 32.4219 48.3906
Q 24.9062 48.3906 20.3906 44.1406
Q 15.875 39.8906 15.1875 32.1719
z 
" id="DejaVuSans-65"/>
          </defs>
          <g transform="translate(433.7835 56.129)scale(0.192 -0.192)">
            <use xlink:href="#DejaVuSans-73"/>
            <use x="52.099609375" xlink:href="#DejaVuSans-65"/>
            <use x="113.623046875" xlink:href="#DejaVuSans-63"/>
          </g>
        </g>
        <g id="line2d_71">
          <path d="
M 385.783 77.591
L 412.663 77.591" style="fill:none;stroke:#af77dd;stroke-linecap:square;stroke-width:2.4;"/>
        </g>
        <g id="line2d_72"/>
        <g id="text_20">
          <!-- csc -->
          <g transform="translate(433.7835 84.311)scale(0.192 -0.192)">
            <use xlink:href="#DejaVuSans-63"/>
            <use x="54.98046875" xlink:href="#DejaVuSans-73"/>
            <use x="107.080078125" xlink:href="#DejaVuSans-63"/>
          </g>
        </g>
      </g>
    </g>
  </g>
</svg>
